<svg xmlns="http://www.w3.org/2000/svg" width="120" height="80" viewBox="0 0 1024 1024" version="1.1">
	<path d="M 171.500 342.658 C 149.884 343.946, 124.029 347.434, 113.408 350.496 C 110.607 351.304, 107.119 352.905, 105.658 354.055 C 103.135 356.039, 103 356.600, 103 365.070 C 103 373.932, 103.025 374.022, 106.645 378.029 C 110.223 381.989, 110.353 382.431, 113.660 401.782 C 119.960 438.649, 124.452 450.660, 136.400 462.588 C 144.493 470.666, 153.548 475.656, 166.500 479.175 C 173.244 481.007, 177.169 481.348, 191.500 481.348 C 211.558 481.348, 218.823 479.815, 233.873 472.405 C 254.202 462.397, 264.757 446.178, 274.002 410.744 C 276.147 402.525, 278.598 394.736, 279.451 393.435 C 284.071 386.384, 295.852 386.912, 299.336 394.327 C 300.156 396.072, 302.257 403.350, 304.004 410.500 C 311.227 440.050, 320.537 456.860, 335.659 467.651 C 348.113 476.538, 362.408 480.872, 382 481.701 C 406.685 482.746, 426.582 476.912, 439.466 464.851 C 452.554 452.598, 457.999 438.716, 464.056 402.161 C 467.184 383.287, 468.576 378.832, 471.905 377.051 C 474.641 375.587, 476 370.716, 476 362.374 C 476 355.878, 475.745 354.879, 473.750 353.574 C 464.970 347.829, 406.567 340.999, 378.500 342.434 C 352.489 343.764, 336.619 347.028, 316 355.287 C 304.087 360.059, 302.958 360.317, 291.963 360.776 C 278.038 361.357, 273.159 360.419, 259.687 354.575 C 236.800 344.646, 206.615 340.567, 171.500 342.658 M 175.500 363.581 C 154.534 365.612, 148.579 367.149, 143.635 371.803 C 137.659 377.429, 136.516 381.834, 136.576 399 C 136.638 416.717, 138.829 428.271, 144.447 440.500 C 151.481 455.815, 166.297 462.942, 191.185 462.983 C 232.762 463.050, 254.269 439.545, 255.293 392.917 C 255.467 385.008, 255.173 382.939, 253.461 380 C 247.407 369.608, 228.809 364.188, 197 363.547 C 187.375 363.353, 177.700 363.368, 175.500 363.581 M 364 364.048 C 339.348 367.101, 325.708 373.347, 323.372 382.652 C 322.247 387.138, 323.819 407.099, 325.999 416 C 333.843 448.026, 353.369 463, 387.287 463 C 410.862 463, 426.552 455.599, 434.023 440.954 C 440.762 427.746, 444.360 394.912, 440.436 382.437 C 438.150 375.168, 432.221 368.655, 426.500 367.128 C 414.525 363.931, 379.052 362.183, 364 364.048 M 241.938 501.063 C 231.412 502.612, 219.777 508.571, 210.322 517.256 C 207.780 519.590, 201.326 526.919, 195.978 533.543 C 184.534 547.717, 177.877 553.967, 170.515 557.450 C 155.334 564.631, 137.906 562.881, 126.710 553.050 L 123.010 549.802 123.595 553.151 C 128.742 582.614, 150.354 604.940, 182.711 614.218 C 194.035 617.466, 217.599 617.462, 230.440 614.211 C 240.069 611.773, 255.015 605.149, 262.484 600.011 C 269.371 595.272, 279.772 585.265, 284.605 578.727 L 288.872 572.954 291.914 577.374 C 299.771 588.795, 314 600.285, 329.209 607.489 C 343.962 614.478, 353.457 616.453, 372 616.391 C 385.866 616.345, 388.428 616.057, 396.297 613.660 C 427.016 604.306, 449.764 580.717, 453.552 554.288 L 454.239 549.500 450.869 552.696 C 442.605 560.535, 427.255 563.939, 415.450 560.551 C 403.325 557.070, 396.734 551.733, 381.950 533.422 C 371.528 520.514, 365.597 514.724, 357.316 509.373 C 336.857 496.152, 315.058 497.945, 295.605 514.448 L 288.885 520.149 284.692 516.290 C 275.691 508.005, 266.167 503.034, 255.566 501.089 C 252.303 500.490, 249.153 500.055, 248.566 500.122 C 247.980 500.189, 244.997 500.612, 241.938 501.063 M 465 563 L 465 620 475.500 620 L 486 620 486 597.500 L 486 575 506.405 575 L 526.810 575 526.700 566 L 526.591 557 506.295 557 L 486 557 486 541.500 L 486 526 510.500 526 L 535 526 535 516 L 535 506 500 506 L 465 506 465 563 M 560.500 535.470 C 557.200 536.191, 552.962 537.410, 551.082 538.180 L 547.665 539.579 547.582 548.288 C 547.537 553.078, 547.603 556.998, 547.729 556.998 C 547.855 556.999, 551.333 555.867, 555.459 554.482 C 560.997 552.623, 565.161 551.948, 571.375 551.902 C 584.358 551.807, 588 554.687, 588 565.047 L 588 570 577.105 570 C 562.284 570, 554.553 572.352, 548.072 578.833 C 542.417 584.487, 540.473 590.257, 541.269 599.024 C 542.556 613.224, 553.891 622.005, 569.333 620.765 C 576.730 620.172, 582.524 617.445, 586.845 612.524 L 590 608.930 590 614.465 L 590 620 599 620 L 608 620 608 586.866 C 608 563.546, 607.636 552.513, 606.770 549.616 C 605.006 543.712, 598.443 537.506, 591.911 535.566 C 585.462 533.651, 569.055 533.601, 560.500 535.470 M 659.741 535.429 C 655.652 536.888, 654.132 537.893, 649.357 542.291 L 646.213 545.186 645.513 540.093 L 644.812 535 636.406 535 L 628 535 628 577.500 L 628 620 638 620 L 648 620 648.002 591.750 C 648.003 566.850, 648.210 563.087, 649.752 560.020 C 652.393 554.762, 657.213 552, 663.748 552 C 668.572 552, 669.577 552.377, 672.467 555.267 C 677.277 560.077, 678 565.211, 678 594.549 L 678 620 688 620 L 698 620 698 591.035 L 698 562.070 701.148 558.484 C 702.880 556.511, 705.558 554.246, 707.099 553.449 C 710.679 551.598, 718.297 551.585, 721.855 553.425 C 727.194 556.186, 727.474 557.919, 727.805 590.250 L 728.110 620 738.055 620 L 748 620 748 587.682 C 748 552.431, 747.462 548.079, 742.350 542.004 C 737.409 536.132, 732.765 534.500, 721 534.500 C 711.309 534.500, 710.101 534.721, 705.323 537.369 C 702.475 538.947, 698.920 541.518, 697.422 543.082 L 694.698 545.925 689.487 541.162 C 686.621 538.542, 682.474 535.859, 680.272 535.200 C 675.016 533.625, 664.467 533.743, 659.741 535.429 M 800.324 535.638 C 798.028 536.451, 794.105 538.916, 791.607 541.114 C 787.195 544.998, 787.053 545.046, 786.596 542.806 C 786.337 541.538, 785.864 539.263, 785.544 537.750 L 784.962 535 775.981 535 L 767 535 767 577.500 L 767 620 777.500 620 L 788 620 788.002 591.750 C 788.003 560.798, 788.306 558.983, 794.176 554.681 C 797.546 552.211, 805.961 551.327, 810.036 553.015 C 816.145 555.545, 816.467 557.318, 816.805 590.250 L 817.110 620 827.305 620.001 L 837.500 620.001 837.220 591.385 L 836.939 562.768 839.585 559.299 C 841.041 557.391, 843.642 554.970, 845.366 553.919 C 849.329 551.502, 857.625 551.348, 860.883 553.631 C 865.604 556.938, 866 559.824, 866 590.968 L 866 620 876.581 620 L 887.162 620 886.798 586.250 C 886.384 547.906, 886.220 547.004, 878.444 540.160 C 873.231 535.571, 868.443 534, 859.671 534 C 851.368 534, 843.606 536.803, 837.909 541.858 L 833.654 545.635 829.077 540.917 C 826.142 537.892, 823.065 535.807, 820.500 535.105 C 815.005 533.602, 805.350 533.857, 800.324 535.638 M 922 534.935 C 913.801 537.438, 907.225 542.822, 904.553 549.218 C 902.642 553.792, 902.533 563.948, 904.347 568.282 C 907.035 574.702, 916.812 581.538, 929 585.520 C 940.740 589.356, 944.785 598.464, 936.629 602.698 C 930.767 605.742, 920.863 604.386, 905.750 598.471 C 904.162 597.849, 904 598.624, 904 606.854 L 904 615.923 908.810 617.351 C 918.682 620.283, 925.568 621.243, 932.500 620.654 C 941.991 619.847, 948.031 617.605, 953.369 612.907 C 959.294 607.691, 961.353 602.258, 960.841 593.192 C 960.211 582.041, 955.717 577.680, 937.480 570.520 C 926.578 566.240, 923 563.097, 923 557.798 C 923 554.553, 923.495 553.669, 926.250 551.989 C 930.418 549.448, 937.449 549.408, 946.568 551.876 C 950.380 552.907, 954.288 554.080, 955.250 554.483 C 956.837 555.146, 957 554.420, 957 546.685 L 957 538.155 953.750 537.130 C 944.673 534.267, 927.970 533.112, 922 534.935 M 570.014 584.005 C 568.097 584.466, 565.234 586.293, 563.652 588.064 C 561.211 590.796, 560.855 591.883, 561.305 595.240 C 562.792 606.327, 576.436 609.335, 585.028 600.471 C 588.288 597.108, 588.500 596.481, 588.500 590.195 L 588.500 583.500 581 583.333 C 576.875 583.241, 571.931 583.544, 570.014 584.005" stroke="none" fill="#ff3131" fill-rule="evenodd"/>
</svg>